# xmcd CD database file
#
# Track frame offsets:
#	150
#	20218
#	39418
#	72150
#	95043
#	112303
#	130380
#	151343
#	175843
#	199538
#
# Disc length: 2971 seconds
#
# Revision: 5
# Processed by: cddbd v1.5.2PL0 Copyright (c) Steve Scherf et al.
# Submitted via: CDex 1.51
#
DISCID=8d0b990a
DTITLE=Robert Cray - I Was Warned
DYEAR=1992
DGENRE=Blues
TTITLE0=Just a Loser
TTITLE1=I'm a Good Man
TTITLE2=I Was Warned
TTITLE3=The Price I Pay
TTITLE4=Won The Battle
TTITLE5=On The Road Down
TTITLE6=A Whole Lotta Pride
TTITLE7=A Picture of a Broken Heart
TTITLE8=He Don't Live Here Anymore
TTITLE9=Our Last Time
EXTD=YEAR: 1992
EXTT0=
EXTT1=
EXTT2=
EXTT3=
EXTT4=
EXTT5=
EXTT6=
EXTT7=
EXTT8=
EXTT9=
PLAYORDER=
